<svg width="174" height="142" viewBox="0 0 174 142" xmlns="http://www.w3.org/2000/svg">
<rect width="100%" height="100%" fill="#000000"/>
<polygon points="85.0,59.0 89.0,59.0 87.0,67.0" fill="#acaaac"/>
<circle cx="87.0" cy="71.0" r="59.0" fill="none" stroke="#5d2621" stroke-width="1"/>
<circle cx="87.0" cy="12.0" r="2" fill="#202020"/>
<circle cx="87.0" cy="12.0" r="4" fill="#722f29"/>
<circle cx="109.5783225095403" cy="16.49110758183408" r="2" fill="#202020"/>
<circle cx="109.5783225095403" cy="16.49110758183408" r="3" fill="none" stroke="#4e201c" stroke-width="1"/>
<circle cx="128.7193000900063" cy="29.2806999099937" r="2" fill="#202020"/>
<circle cx="128.7193000900063" cy="29.2806999099937" r="3" fill="none" stroke="#4e201c" stroke-width="1"/>
<circle cx="141.5088924181659" cy="48.4216774904597" r="2" fill="#202020"/>
<circle cx="141.5088924181659" cy="48.4216774904597" r="3" fill="none" stroke="#4e201c" stroke-width="1"/>
<circle cx="141.5088924181659" cy="48.4216774904597" r="5" fill="#895652" opacity="0.6"/>
<circle cx="141.5088924181659" cy="48.4216774904597" r="4" fill="none" stroke="#4e201c" stroke-width="1"/>
<circle cx="146.0" cy="71.0" r="2" fill="#202020"/>
<circle cx="146.0" cy="71.0" r="4" fill="#722f29"/>
<circle cx="141.5088924181659" cy="93.5783225095403" r="2" fill="#202020"/>
<circle cx="141.5088924181659" cy="93.5783225095403" r="3" fill="none" stroke="#4e201c" stroke-width="1"/>
<circle cx="128.7193000900063" cy="112.7193000900063" r="2" fill="#202020"/>
<circle cx="128.7193000900063" cy="112.7193000900063" r="3" fill="none" stroke="#4e201c" stroke-width="1"/>
<circle cx="109.5783225095403" cy="125.50889241816591" r="2" fill="#202020"/>
<circle cx="109.5783225095403" cy="125.50889241816591" r="3" fill="none" stroke="#4e201c" stroke-width="1"/>
<circle cx="87.0" cy="130.0" r="2" fill="#202020"/>
<circle cx="87.0" cy="130.0" r="4" fill="#722f29"/>
<circle cx="64.4216774904597" cy="125.50889241816591" r="2" fill="#202020"/>
<circle cx="64.4216774904597" cy="125.50889241816591" r="3" fill="none" stroke="#4e201c" stroke-width="1"/>
<circle cx="45.2806999099937" cy="112.7193000900063" r="2" fill="#202020"/>
<circle cx="45.2806999099937" cy="112.7193000900063" r="3" fill="none" stroke="#4e201c" stroke-width="1"/>
<circle cx="32.49110758183408" cy="93.5783225095403" r="2" fill="#202020"/>
<circle cx="32.49110758183408" cy="93.5783225095403" r="3" fill="none" stroke="#4e201c" stroke-width="1"/>
<circle cx="28.0" cy="71.00000000000001" r="2" fill="#202020"/>
<circle cx="28.0" cy="71.00000000000001" r="4" fill="#722f29"/>
<circle cx="32.49110758183407" cy="48.421677490459736" r="2" fill="#202020"/>
<circle cx="32.49110758183407" cy="48.421677490459736" r="3" fill="none" stroke="#4e201c" stroke-width="1"/>
<circle cx="45.280699909993686" cy="29.2806999099937" r="2" fill="#202020"/>
<circle cx="45.280699909993686" cy="29.2806999099937" r="3" fill="none" stroke="#4e201c" stroke-width="1"/>
<circle cx="64.42167749045971" cy="16.49110758183408" r="2" fill="#202020"/>
<circle cx="64.42167749045971" cy="16.49110758183408" r="3" fill="none" stroke="#4e201c" stroke-width="1"/>
<polyline points="87.0,12.0 146.0,71.0 87.0,130.0 28.0,71.00000000000001 87.0,12.0" fill="none" stroke="#391714" stroke-width="1"/>
<circle cx="87.0" cy="71.0" r="48.75" fill="none" stroke="#604f1d" stroke-width="1"/>
<circle cx="87.0" cy="22.25" r="2" fill="#202020"/>
<circle cx="87.0" cy="22.25" r="4" fill="#776124"/>
<circle cx="105.65581732779813" cy="25.960872790074774" r="2" fill="#202020"/>
<circle cx="105.65581732779813" cy="25.960872790074774" r="3" fill="none" stroke="#524219" stroke-width="1"/>
<circle cx="121.47145558284419" cy="36.528544417155814" r="2" fill="#202020"/>
<circle cx="121.47145558284419" cy="36.528544417155814" r="3" fill="none" stroke="#524219" stroke-width="1"/>
<circle cx="132.03912720992523" cy="52.344182672201875" r="2" fill="#202020"/>
<circle cx="132.03912720992523" cy="52.344182672201875" r="3" fill="none" stroke="#524219" stroke-width="1"/>
<circle cx="132.03912720992523" cy="52.344182672201875" r="5" fill="#8c7c4e" opacity="0.6"/>
<circle cx="132.03912720992523" cy="52.344182672201875" r="4" fill="none" stroke="#524219" stroke-width="1"/>
<circle cx="135.75" cy="71.0" r="2" fill="#202020"/>
<circle cx="135.75" cy="71.0" r="3" fill="none" stroke="#524219" stroke-width="1"/>
<circle cx="132.03912720992523" cy="89.65581732779813" r="2" fill="#202020"/>
<circle cx="132.03912720992523" cy="89.65581732779813" r="3" fill="none" stroke="#524219" stroke-width="1"/>
<circle cx="121.47145558284419" cy="105.47145558284419" r="2" fill="#202020"/>
<circle cx="121.47145558284419" cy="105.47145558284419" r="3" fill="none" stroke="#524219" stroke-width="1"/>
<circle cx="105.65581732779813" cy="116.03912720992523" r="2" fill="#202020"/>
<circle cx="105.65581732779813" cy="116.03912720992523" r="3" fill="none" stroke="#524219" stroke-width="1"/>
<circle cx="87.0" cy="119.75" r="2" fill="#202020"/>
<circle cx="87.0" cy="119.75" r="4" fill="#776124"/>
<circle cx="68.34418267220187" cy="116.03912720992523" r="2" fill="#202020"/>
<circle cx="68.34418267220187" cy="116.03912720992523" r="3" fill="none" stroke="#524219" stroke-width="1"/>
<circle cx="52.528544417155814" cy="105.47145558284419" r="2" fill="#202020"/>
<circle cx="52.528544417155814" cy="105.47145558284419" r="3" fill="none" stroke="#524219" stroke-width="1"/>
<circle cx="41.960872790074774" cy="89.65581732779813" r="2" fill="#202020"/>
<circle cx="41.960872790074774" cy="89.65581732779813" r="3" fill="none" stroke="#524219" stroke-width="1"/>
<circle cx="38.25" cy="71.0" r="2" fill="#202020"/>
<circle cx="38.25" cy="71.0" r="3" fill="none" stroke="#524219" stroke-width="1"/>
<circle cx="41.96087279007476" cy="52.344182672201896" r="2" fill="#202020"/>
<circle cx="41.96087279007476" cy="52.344182672201896" r="3" fill="none" stroke="#524219" stroke-width="1"/>
<circle cx="52.5285444171558" cy="36.528544417155814" r="2" fill="#202020"/>
<circle cx="52.5285444171558" cy="36.528544417155814" r="3" fill="none" stroke="#524219" stroke-width="1"/>
<circle cx="68.34418267220188" cy="25.960872790074767" r="2" fill="#202020"/>
<circle cx="68.34418267220188" cy="25.960872790074767" r="3" fill="none" stroke="#524219" stroke-width="1"/>
<polyline points="87.0,22.25 87.0,119.75 87.0,22.25" fill="none" stroke="#3b3012" stroke-width="1"/>
<circle cx="87.0" cy="71.0" r="38.5" fill="none" stroke="#3092a5" stroke-width="1"/>
<circle cx="87.0" cy="32.5" r="2" fill="#202020"/>
<circle cx="87.0" cy="32.5" r="4" fill="#4ae2ff"/>
<circle cx="106.25" cy="37.658021954299116" r="2" fill="#202020"/>
<circle cx="106.25" cy="37.658021954299116" r="4" fill="#4ae2ff"/>
<circle cx="120.3419780457009" cy="51.75" r="2" fill="#202020"/>
<circle cx="120.3419780457009" cy="51.75" r="3" fill="none" stroke="#339eb2" stroke-width="1"/>
<circle cx="125.5" cy="71.0" r="2" fill="#202020"/>
<circle cx="125.5" cy="71.0" r="4" fill="#4ae2ff"/>
<circle cx="125.5" cy="71.0" r="5" fill="#37a9bf" opacity="0.6"/>
<circle cx="125.5" cy="71.0" r="4" fill="#4ae2ff"/>
<circle cx="120.3419780457009" cy="90.25" r="2" fill="#202020"/>
<circle cx="120.3419780457009" cy="90.25" r="3" fill="none" stroke="#339eb2" stroke-width="1"/>
<circle cx="106.25" cy="104.34197804570088" r="2" fill="#202020"/>
<circle cx="106.25" cy="104.34197804570088" r="4" fill="#4ae2ff"/>
<circle cx="87.0" cy="109.5" r="2" fill="#202020"/>
<circle cx="87.0" cy="109.5" r="4" fill="#4ae2ff"/>
<circle cx="67.75" cy="104.3419780457009" r="2" fill="#202020"/>
<circle cx="67.75" cy="104.3419780457009" r="3" fill="none" stroke="#339eb2" stroke-width="1"/>
<circle cx="53.65802195429911" cy="90.25" r="2" fill="#202020"/>
<circle cx="53.65802195429911" cy="90.25" r="4" fill="#4ae2ff"/>
<circle cx="48.5" cy="71.0" r="2" fill="#202020"/>
<circle cx="48.5" cy="71.0" r="3" fill="none" stroke="#339eb2" stroke-width="1"/>
<circle cx="53.658021954299116" cy="51.75" r="2" fill="#202020"/>
<circle cx="53.658021954299116" cy="51.75" r="4" fill="#4ae2ff"/>
<circle cx="67.74999999999999" cy="37.65802195429912" r="2" fill="#202020"/>
<circle cx="67.74999999999999" cy="37.65802195429912" r="3" fill="none" stroke="#339eb2" stroke-width="1"/>
<polyline points="87.0,32.5 106.25,37.658021954299116 125.5,71.0 106.25,104.34197804570088 87.0,109.5 53.65802195429911,90.25 53.658021954299116,51.75 87.0,32.5" fill="none" stroke="#25717f" stroke-width="1"/>
<circle cx="87.0" cy="71.0" r="28.25" fill="none" stroke="#74224a" stroke-width="1"/>
<circle cx="87.0" cy="42.75" r="2" fill="#202020"/>
<circle cx="87.0" cy="42.75" r="4" fill="#8e2a5b"/>
<circle cx="106.97576656851997" cy="51.024233431480035" r="2" fill="#202020"/>
<circle cx="106.97576656851997" cy="51.024233431480035" r="3" fill="none" stroke="#621d3f" stroke-width="1"/>
<circle cx="115.25" cy="71.0" r="2" fill="#202020"/>
<circle cx="115.25" cy="71.0" r="3" fill="none" stroke="#621d3f" stroke-width="1"/>
<circle cx="106.97576656851997" cy="90.97576656851996" r="2" fill="#202020"/>
<circle cx="106.97576656851997" cy="90.97576656851996" r="4" fill="#8e2a5b"/>
<circle cx="106.97576656851997" cy="90.97576656851996" r="5" fill="#9e5277" opacity="0.6"/>
<circle cx="106.97576656851997" cy="90.97576656851996" r="4" fill="#8e2a5b"/>
<circle cx="87.0" cy="99.25" r="2" fill="#202020"/>
<circle cx="87.0" cy="99.25" r="3" fill="none" stroke="#621d3f" stroke-width="1"/>
<circle cx="67.02423343148004" cy="90.97576656851997" r="2" fill="#202020"/>
<circle cx="67.02423343148004" cy="90.97576656851997" r="3" fill="none" stroke="#621d3f" stroke-width="1"/>
<circle cx="58.75" cy="71.0" r="2" fill="#202020"/>
<circle cx="58.75" cy="71.0" r="4" fill="#8e2a5b"/>
<circle cx="67.02423343148003" cy="51.024233431480035" r="2" fill="#202020"/>
<circle cx="67.02423343148003" cy="51.024233431480035" r="3" fill="none" stroke="#621d3f" stroke-width="1"/>
<polyline points="87.0,42.75 106.97576656851997,90.97576656851996 58.75,71.0 87.0,42.75" fill="none" stroke="#47152d" stroke-width="1"/>
<circle cx="87.0" cy="71.0" r="19" fill="#000000"/>
<circle cx="87.0" cy="71.0" r="9.0" fill="#5aae62"/>
</svg>