<svg width="320" height="240" viewBox="0 0 320 240" xmlns="http://www.w3.org/2000/svg">
<style>
    .bg { fill: #000000; }
    .surface { fill: #181818; }
    .surface-pressed { fill: #101c10; }
    .outline { stroke: #393c39; fill: none; stroke-width: 1; }
    .outline-thick { stroke: #393c39; fill: none; stroke-width: 2; }
    .text-primary { fill: #ffffff; font-family: monospace; font-size: 14px; font-weight: bold; }
    .text-secondary { fill: #bdbebd; font-family: monospace; font-size: 12px; }
    .text-caption { fill: #ffffff; font-family: monospace; font-size: 10px; }
    .accent { fill: #29aeff; }
    .danger { fill: #ff0000; }
    .transport { fill: #00ff00; }
</style>
<rect width="100%" height="100%" class="bg"/>
<rect x="16" y="6" width="160" height="20" rx="4" class="transport outline" />
<text x="96.0" y="21.0" class="text-primary text-on-transport" text-anchor="middle" >PLAYING</text>
<text x="188" y="20" class="text-primary" text-anchor="start" >BPM: 120</text>
<rect x="12" y="42" width="96" height="24" rx="4" class="accent outline" />
<text x="60.0" y="59.0" class="text-primary" text-anchor="middle" >PROJECT</text>
<text x="116" y="58" class="text-primary" text-anchor="start" >SLOT 01 - DEFAULT</text>
<rect x="12" y="74" width="70" height="24" rx="4" class="accent outline" />
<text x="47.0" y="91.0" class="text-primary" text-anchor="middle" >01</text>
<rect x="88" y="74" width="70" height="24" rx="4" class="surface outline" />
<text x="123.0" y="91.0" class="text-primary" text-anchor="middle" >02</text>
<rect x="164" y="74" width="70" height="24" rx="4" class="surface outline" />
<text x="199.0" y="91.0" class="text-primary" text-anchor="middle" >03</text>
<rect x="240" y="74" width="70" height="24" rx="4" class="surface outline" />
<text x="275.0" y="91.0" class="text-primary" text-anchor="middle" >04</text>
<rect x="12" y="106" width="70" height="24" rx="4" class="surface outline" />
<text x="47.0" y="123.0" class="text-primary" text-anchor="middle" >05</text>
<rect x="88" y="106" width="70" height="24" rx="4" class="surface outline" />
<text x="123.0" y="123.0" class="text-primary" text-anchor="middle" >06</text>
<rect x="164" y="106" width="70" height="24" rx="4" class="surface outline" />
<text x="199.0" y="123.0" class="text-primary" text-anchor="middle" >07</text>
<rect x="240" y="106" width="70" height="24" rx="4" class="surface outline" />
<text x="275.0" y="123.0" class="text-primary" text-anchor="middle" >08</text>
<rect x="12" y="138" width="70" height="24" rx="4" class="surface outline" />
<text x="47.0" y="155.0" class="text-primary" text-anchor="middle" >09</text>
<rect x="88" y="138" width="70" height="24" rx="4" class="surface outline" />
<text x="123.0" y="155.0" class="text-primary" text-anchor="middle" >10</text>
<rect x="164" y="138" width="70" height="24" rx="4" class="surface outline" />
<text x="199.0" y="155.0" class="text-primary" text-anchor="middle" >11</text>
<rect x="240" y="138" width="70" height="24" rx="4" class="surface outline" />
<text x="275.0" y="155.0" class="text-primary" text-anchor="middle" >12</text>
<rect x="12" y="172" width="98" height="24" rx="4" class="surface outline" />
<text x="61.0" y="189.0" class="text-primary" text-anchor="middle" >SAVE</text>
<rect x="117" y="172" width="98" height="24" rx="4" class="surface outline" />
<text x="166.0" y="189.0" class="text-primary" text-anchor="middle" >LOAD</text>
<rect x="222" y="172" width="86" height="24" rx="4" class="danger outline" />
<text x="265.0" y="189.0" class="text-primary" text-anchor="middle" >CLEAR</text>
<rect x="5.0" y="204" width="62" height="32" rx="4" class="surface outline" />
<text x="36.0" y="225.0" class="text-primary" text-anchor="middle" >PERF</text>
<rect x="67.0" y="204" width="62" height="32" rx="4" class="surface outline" />
<text x="98.0" y="225.0" class="text-primary" text-anchor="middle" >PATT</text>
<rect x="129.0" y="204" width="62" height="32" rx="4" class="surface outline" />
<text x="160.0" y="225.0" class="text-primary" text-anchor="middle" >SOUND</text>
<rect x="191.0" y="204" width="62" height="32" rx="4" class="surface outline" />
<text x="222.0" y="225.0" class="text-primary" text-anchor="middle" >MIX</text>
<rect x="253.0" y="204" width="62" height="32" rx="4" class="accent outline" />
<text x="284.0" y="225.0" class="text-primary" text-anchor="middle" >PROJ</text>
</svg>