<svg width="320" height="240" viewBox="0 0 320 240" xmlns="http://www.w3.org/2000/svg">
<style>
    .bg { fill: #000000; }
    .surface { fill: #181818; }
    .surface-pressed { fill: #101c10; }
    .outline { stroke: #393c39; fill: none; stroke-width: 1; }
    .outline-thick { stroke: #393c39; fill: none; stroke-width: 2; }
    .text-primary { fill: #ffffff; font-family: monospace; font-size: 14px; font-weight: bold; }
    .text-secondary { fill: #bdbebd; font-family: monospace; font-size: 12px; }
    .text-caption { fill: #ffffff; font-family: monospace; font-size: 10px; }
    .accent { fill: #29aeff; }
    .danger { fill: #ff0000; }
    .transport { fill: #00ff00; }
</style>
<rect width="100%" height="100%" class="bg"/>
<rect x="16" y="6" width="160" height="20" rx="4" class="transport outline" />
<text x="96.0" y="21.0" class="text-primary text-on-transport" text-anchor="middle" >PLAYING</text>
<text x="188" y="20" class="text-primary" text-anchor="start" >BPM: 120</text>
<rect x="12" y="42" width="56" height="32" rx="4" class="surface outline" />
<text x="40.0" y="63.0" class="text-primary" text-anchor="middle" style="fill: #cd554a;">KICK</text>
<rect x="72" y="42" width="56" height="32" rx="4" class="surface outline" style="fill: #3f3413; stroke: #d5ae41; "/>
<text x="100.0" y="63.0" class="text-primary" text-anchor="middle" >SNRE</text>
<rect x="132" y="42" width="56" height="32" rx="4" class="surface outline" />
<text x="160.0" y="63.0" class="text-primary" text-anchor="middle" style="fill: #4ae2ff;">HATC</text>
<rect x="192" y="42" width="56" height="32" rx="4" class="surface outline" />
<text x="220.0" y="63.0" class="text-primary" text-anchor="middle" style="fill: #ff4ca4;">HATO</text>
<rect x="252" y="42" width="56" height="32" rx="4" class="surface outline" />
<text x="280.0" y="63.0" class="text-primary" text-anchor="middle" style="fill: #5aae62;">BASS</text>
<rect x="12" y="82" width="296" height="32" rx="4" class="surface outline" />
<rect x="14" y="84" width="116" height="28" rx="2" class="" style="fill: #d5ae41; "/>
<text x="20" y="102.0" class="text-primary" text-anchor="start" >PITCH</text>
<text x="300" y="102.0" class="text-primary" text-anchor="end" >40%</text>
<rect x="12" y="120" width="296" height="32" rx="4" class="surface outline" />
<rect x="14" y="122" width="175" height="28" rx="2" class="" style="fill: #d5ae41; "/>
<text x="20" y="140.0" class="text-primary" text-anchor="start" >DECAY</text>
<text x="300" y="140.0" class="text-primary" text-anchor="end" >60%</text>
<rect x="12" y="158" width="296" height="32" rx="4" class="surface outline" />
<rect x="14" y="160" width="58" height="28" rx="2" class="" style="fill: #d5ae41; "/>
<text x="20" y="178.0" class="text-primary" text-anchor="start" >TONE</text>
<text x="300" y="178.0" class="text-primary" text-anchor="end" >20%</text>
<rect x="5.0" y="204" width="62" height="32" rx="4" class="surface outline" />
<text x="36.0" y="225.0" class="text-primary" text-anchor="middle" >PERF</text>
<rect x="67.0" y="204" width="62" height="32" rx="4" class="surface outline" />
<text x="98.0" y="225.0" class="text-primary" text-anchor="middle" >PATT</text>
<rect x="129.0" y="204" width="62" height="32" rx="4" class="accent outline" />
<text x="160.0" y="225.0" class="text-primary" text-anchor="middle" >SOUND</text>
<rect x="191.0" y="204" width="62" height="32" rx="4" class="surface outline" />
<text x="222.0" y="225.0" class="text-primary" text-anchor="middle" >MIX</text>
<rect x="253.0" y="204" width="62" height="32" rx="4" class="surface outline" />
<text x="284.0" y="225.0" class="text-primary" text-anchor="middle" >PROJ</text>
</svg>