<svg xmlns="http://www.w3.org/2000/svg" width="960" height="720" viewBox="0 0 320 240">
  <rect width="320" height="240" fill="#0f1216"/>
  <rect x="8" y="6" width="304" height="28" rx="7" fill="#24303c" stroke="#3a4754"/>
  <text x="16" y="24" fill="#eaf2ff" font-size="10" font-family="monospace">MIX • balanço em performance</text>
  <text x="226" y="24" fill="#9db3c8" font-size="10" font-family="monospace">MASTER 82%</text>

  <rect x="12" y="46" width="120" height="42" rx="8" fill="#2a3440" stroke="#596d82"/>
  <text x="20" y="62" fill="#9db3c8" font-size="8" font-family="monospace">MIX</text>
  <text x="20" y="79" fill="#ffffff" font-size="11" font-family="monospace">LEVELS</text>

  <text x="160" y="58" fill="#9db3c8" font-size="9" font-family="monospace">Drag ativo: OPEN HAT</text>

  <g font-family="monospace" font-size="8" text-anchor="middle">
    <rect x="26" y="82" width="36" height="108" rx="7" fill="#1e2731"/>
    <rect x="34" y="112" width="20" height="70" rx="4" fill="#30d689"/>
    <rect x="30" y="108" width="28" height="8" rx="3" fill="#dce8f6"/>
    <text x="44" y="198" fill="#d8e8ff">KICK</text><text x="44" y="208" fill="#9db3c8">68%</text>

    <rect x="82" y="82" width="36" height="108" rx="7" fill="#1e2731"/>
    <rect x="90" y="124" width="20" height="58" rx="4" fill="#30d689"/>
    <rect x="86" y="120" width="28" height="8" rx="3" fill="#dce8f6"/>
    <text x="100" y="198" fill="#d8e8ff">SNARE</text><text x="100" y="208" fill="#9db3c8">58%</text>

    <rect x="138" y="82" width="36" height="108" rx="7" fill="#1e2731"/>
    <rect x="146" y="106" width="20" height="76" rx="4" fill="#30d689"/>
    <rect x="142" y="102" width="28" height="8" rx="3" fill="#dce8f6"/>
    <text x="156" y="198" fill="#d8e8ff">CH</text><text x="156" y="208" fill="#9db3c8">74%</text>

    <rect x="194" y="82" width="36" height="108" rx="7" fill="#293746" stroke="#6bd9a5"/>
    <rect x="202" y="98" width="20" height="84" rx="4" fill="#30d689"/>
    <rect x="198" y="94" width="28" height="8" rx="3" fill="#ffffff"/>
    <text x="212" y="198" fill="#ffffff">OH</text><text x="212" y="208" fill="#bfeeda">82%</text>

    <rect x="250" y="82" width="36" height="108" rx="7" fill="#1e2731"/>
    <rect x="258" y="128" width="20" height="54" rx="4" fill="#30d689"/>
    <rect x="254" y="124" width="28" height="8" rx="3" fill="#dce8f6"/>
    <text x="268" y="198" fill="#d8e8ff">BASS</text><text x="268" y="208" fill="#9db3c8">54%</text>
  </g>

  <rect x="0" y="210" width="320" height="30" fill="#24303c"/>
  <text x="18" y="228" fill="#9db3c8" font-size="10" font-family="monospace">PERF</text>
  <text x="78" y="228" fill="#9db3c8" font-size="10" font-family="monospace">PATT</text>
  <text x="138" y="228" fill="#9db3c8" font-size="10" font-family="monospace">SND</text>
  <text x="196" y="228" fill="#ffffff" font-size="10" font-family="monospace">MIX</text>
  <text x="256" y="228" fill="#9db3c8" font-size="10" font-family="monospace">PROJ</text>
</svg>
