<svg xmlns="http://www.w3.org/2000/svg" width="960" height="720" viewBox="0 0 320 240">
  <rect width="320" height="240" fill="#0f1216"/>
  <rect x="8" y="6" width="304" height="28" rx="7" fill="#24303c" stroke="#3a4754"/>
  <text x="16" y="24" fill="#eaf2ff" font-size="10" font-family="monospace">SOUND • design de timbre</text>
  <text x="248" y="24" fill="#9db3c8" font-size="10" font-family="monospace">BASS B</text>

  <rect x="12" y="46" width="130" height="48" rx="8" fill="#2a3440" stroke="#596d82"/>
  <text x="20" y="62" fill="#9db3c8" font-size="8" font-family="monospace">SOUND</text>
  <text x="20" y="82" fill="#ffffff" font-size="12" font-family="monospace">BASS B</text>

  <rect x="150" y="54" width="30" height="24" rx="4" fill="#2f4457"/><text x="161" y="69" fill="#d8e8ff" font-size="9" font-family="monospace">K</text>
  <rect x="182" y="54" width="30" height="24" rx="4" fill="#2f4457"/><text x="193" y="69" fill="#d8e8ff" font-size="9" font-family="monospace">S</text>
  <rect x="214" y="54" width="30" height="24" rx="4" fill="#2f4457"/><text x="224" y="69" fill="#d8e8ff" font-size="9" font-family="monospace">CH</text>
  <rect x="246" y="54" width="30" height="24" rx="4" fill="#2f4457"/><text x="256" y="69" fill="#d8e8ff" font-size="9" font-family="monospace">OH</text>
  <rect x="278" y="54" width="30" height="24" rx="4" fill="#1fa564"/><text x="285" y="69" fill="#ffffff" font-size="9" font-family="monospace">B</text>

  <g font-family="monospace" font-size="9">
    <rect x="12" y="102" width="296" height="22" rx="5" fill="#1e2731"/>
    <text x="18" y="116" fill="#b9cde2">RANGE</text><text x="112" y="116" fill="#fff">8</text>
    <rect x="208" y="103" width="24" height="20" rx="3" fill="#324252"/><text x="217" y="116" fill="#dbe8f6">-</text>
    <rect x="236" y="103" width="24" height="20" rx="3" fill="#324252"/><text x="245" y="116" fill="#dbe8f6">+</text>
    <rect x="146" y="111" width="54" height="6" rx="3" fill="#2f3c49"/><rect x="146" y="111" width="32" height="6" rx="3" fill="#30d689"/>

    <rect x="12" y="126" width="296" height="22" rx="5" fill="#1e2731"/>
    <text x="18" y="140" fill="#b9cde2">MOTIF</text><text x="112" y="140" fill="#fff">M3</text>
    <rect x="208" y="127" width="24" height="20" rx="3" fill="#324252"/><text x="217" y="140" fill="#dbe8f6">-</text>
    <rect x="236" y="127" width="24" height="20" rx="3" fill="#324252"/><text x="245" y="140" fill="#dbe8f6">+</text>
    <rect x="146" y="135" width="54" height="6" rx="3" fill="#2f3c49"/><rect x="146" y="135" width="40" height="6" rx="3" fill="#30d689"/>

    <rect x="12" y="150" width="296" height="22" rx="5" fill="#1e2731"/>
    <text x="18" y="164" fill="#b9cde2">SWING</text><text x="112" y="164" fill="#fff">62%</text>
    <rect x="208" y="151" width="24" height="20" rx="3" fill="#324252"/><text x="217" y="164" fill="#dbe8f6">-</text>
    <rect x="236" y="151" width="24" height="20" rx="3" fill="#1fa564"/><text x="245" y="164" fill="#fff">+</text>
    <rect x="146" y="159" width="54" height="6" rx="3" fill="#2f3c49"/><rect x="146" y="159" width="34" height="6" rx="3" fill="#30d689"/>

    <rect x="12" y="174" width="296" height="22" rx="5" fill="#1e2731"/>
    <text x="18" y="188" fill="#b9cde2">ACCENT</text><text x="112" y="188" fill="#fff">48%</text>
    <rect x="208" y="175" width="24" height="20" rx="3" fill="#324252"/><text x="217" y="188" fill="#dbe8f6">-</text>
    <rect x="236" y="175" width="24" height="20" rx="3" fill="#324252"/><text x="245" y="188" fill="#dbe8f6">+</text>
    <rect x="146" y="183" width="54" height="6" rx="3" fill="#2f3c49"/><rect x="146" y="183" width="26" height="6" rx="3" fill="#30d689"/>
  </g>

  <rect x="172" y="200" width="136" height="18" rx="5" fill="#24303c"/>
  <text x="180" y="213" fill="#9db3c8" font-size="8" font-family="monospace">Swipe lateral: páginas A/B/C do BASS</text>

  <rect x="0" y="210" width="320" height="30" fill="#24303c"/>
  <text x="18" y="228" fill="#9db3c8" font-size="10" font-family="monospace">PERF</text>
  <text x="78" y="228" fill="#9db3c8" font-size="10" font-family="monospace">PATT</text>
  <text x="138" y="228" fill="#ffffff" font-size="10" font-family="monospace">SND</text>
  <text x="196" y="228" fill="#9db3c8" font-size="10" font-family="monospace">MIX</text>
  <text x="256" y="228" fill="#9db3c8" font-size="10" font-family="monospace">PROJ</text>
</svg>
