<svg xmlns="http://www.w3.org/2000/svg" width="960" height="720" viewBox="0 0 320 240">
  <rect width="320" height="240" fill="#0f1216"/>
  <rect x="8" y="6" width="304" height="28" rx="7" fill="#24303c" stroke="#3a4754"/>
  <text x="16" y="24" fill="#eaf2ff" font-size="10" font-family="monospace">PATTERN • edição de groove</text>
  <text x="236" y="24" fill="#9db3c8" font-size="10" font-family="monospace">TRK BASS</text>

  <rect x="12" y="46" width="104" height="48" rx="8" fill="#2a3440" stroke="#596d82"/>
  <text x="20" y="62" fill="#9db3c8" font-size="8" font-family="monospace">PATTERN</text>
  <text x="20" y="82" fill="#ffffff" font-size="12" font-family="monospace">EDIT</text>

  <circle cx="166" cy="82" r="38" fill="none" stroke="#2f3d49" stroke-width="9"/>
  <circle cx="166" cy="82" r="27" fill="none" stroke="#385060" stroke-width="8"/>
  <circle cx="166" cy="82" r="16" fill="none" stroke="#5c758b" stroke-width="7"/>
  <g stroke="#30d689" stroke-width="3" stroke-linecap="round">
    <line x1="166" y1="44" x2="166" y2="52"/>
    <line x1="190" y1="58" x2="184" y2="63"/>
    <line x1="204" y1="82" x2="196" y2="82"/>
    <line x1="190" y1="106" x2="184" y2="101"/>
    <line x1="142" y1="106" x2="148" y2="101"/>
    <line x1="128" y1="82" x2="136" y2="82"/>
  </g>

  <rect x="12" y="96" width="56" height="26" rx="5" fill="#2f4457"/><text x="30" y="112" fill="#d8e8ff" font-size="9" font-family="monospace">K</text>
  <rect x="72" y="96" width="56" height="26" rx="5" fill="#2f4457"/><text x="90" y="112" fill="#d8e8ff" font-size="9" font-family="monospace">S</text>
  <rect x="132" y="96" width="56" height="26" rx="5" fill="#2f4457"/><text x="147" y="112" fill="#d8e8ff" font-size="9" font-family="monospace">CH</text>
  <rect x="192" y="96" width="56" height="26" rx="5" fill="#2f4457"/><text x="209" y="112" fill="#d8e8ff" font-size="9" font-family="monospace">OH</text>
  <rect x="252" y="96" width="56" height="26" rx="5" fill="#1fa564"/><text x="267" y="112" fill="#fff" font-size="9" font-family="monospace">BASS</text>

  <g font-family="monospace" font-size="9">
    <rect x="12" y="128" width="296" height="16" rx="4" fill="#1e2731"/>
    <text x="18" y="139" fill="#b9cde2">MOTIF</text><text x="120" y="139" fill="#ffffff">2</text>
    <rect x="220" y="128" width="20" height="16" rx="3" fill="#324252"/><text x="227" y="139" fill="#dbe8f6">-</text>
    <rect x="244" y="128" width="20" height="16" rx="3" fill="#1fa564"/><text x="251" y="139" fill="#fff">+</text>

    <rect x="12" y="146" width="296" height="16" rx="4" fill="#1e2731"/>
    <text x="18" y="157" fill="#b9cde2">SWING</text><text x="120" y="157" fill="#ffffff">58%</text>
    <rect x="152" y="151" width="56" height="6" rx="3" fill="#2f3c49"/><rect x="152" y="151" width="32" height="6" rx="3" fill="#30d689"/>
    <rect x="220" y="146" width="20" height="16" rx="3" fill="#324252"/><text x="227" y="157" fill="#dbe8f6">-</text>
    <rect x="244" y="146" width="20" height="16" rx="3" fill="#324252"/><text x="251" y="157" fill="#dbe8f6">+</text>

    <rect x="12" y="164" width="296" height="16" rx="4" fill="#1e2731"/>
    <text x="18" y="175" fill="#b9cde2">GHOST</text><text x="120" y="175" fill="#ffffff">30%</text>
    <rect x="152" y="169" width="56" height="6" rx="3" fill="#2f3c49"/><rect x="152" y="169" width="17" height="6" rx="3" fill="#30d689"/>
    <rect x="220" y="164" width="20" height="16" rx="3" fill="#324252"/><text x="227" y="175" fill="#dbe8f6">-</text>
    <rect x="244" y="164" width="20" height="16" rx="3" fill="#324252"/><text x="251" y="175" fill="#dbe8f6">+</text>

    <rect x="12" y="182" width="296" height="16" rx="4" fill="#1e2731"/>
    <text x="18" y="193" fill="#b9cde2">ACCENT</text><text x="120" y="193" fill="#ffffff">72%</text>
    <rect x="152" y="187" width="56" height="6" rx="3" fill="#2f3c49"/><rect x="152" y="187" width="40" height="6" rx="3" fill="#30d689"/>
    <rect x="220" y="182" width="20" height="16" rx="3" fill="#324252"/><text x="227" y="193" fill="#dbe8f6">-</text>
    <rect x="244" y="182" width="20" height="16" rx="3" fill="#324252"/><text x="251" y="193" fill="#dbe8f6">+</text>
  </g>

  <rect x="12" y="200" width="66" height="28" rx="6" fill="#324252"/><text x="23" y="218" fill="#dbe8f6" font-size="9" font-family="monospace">RANDOM</text>
  <rect x="90" y="200" width="66" height="28" rx="6" fill="#5f2f3a"/><text x="108" y="218" fill="#ffd7df" font-size="9" font-family="monospace">CLEAR</text>
  <rect x="168" y="200" width="66" height="28" rx="6" fill="#324252"/><text x="189" y="218" fill="#dbe8f6" font-size="9" font-family="monospace">COPY</text>
  <rect x="246" y="200" width="66" height="28" rx="6" fill="#1fa564"/><text x="265" y="218" fill="#ffffff" font-size="9" font-family="monospace">PASTE</text>

  <rect x="0" y="210" width="320" height="30" fill="#24303c"/>
  <text x="18" y="228" fill="#9db3c8" font-size="10" font-family="monospace">PERF</text>
  <text x="78" y="228" fill="#ffffff" font-size="10" font-family="monospace">PATT</text>
  <text x="138" y="228" fill="#9db3c8" font-size="10" font-family="monospace">SND</text>
  <text x="196" y="228" fill="#9db3c8" font-size="10" font-family="monospace">MIX</text>
  <text x="256" y="228" fill="#9db3c8" font-size="10" font-family="monospace">PROJ</text>
</svg>
